# xmcd
#
# Track frame offsets:
#	150
#	13332
#	28536
#	48009
#	61154
#	74711
#	85898
#	98911
#	109472
#	125313
#
# Disc length: 1951 seconds
#
# Revision: 1
# Processed by: cddbd v1.5.1PL0 Copyright (c) Steve Scherf et al.
# Submitted via: audiograbber 1.83.01
#
DISCID=85079d0a
DTITLE=Maryland Express - Country Velvet
DYEAR=1998
DGENRE=Country
TTITLE0=Dont it make your brown eyes blue
TTITLE1=Right or wrong
TTITLE2=Blue eyes crying in the rain
TTITLE3=Tonight we might
TTITLE4=Words
TTITLE5=Wreck of the 97
TTITLE6=Teach your children
TTITLE7=In this life
TTITLE8=Love can build a bridge
TTITLE9=I dont want to talk about it
EXTD=
EXTT0=
EXTT1=
EXTT2=
EXTT3=
EXTT4=
EXTT5=
EXTT6=
EXTT7=
EXTT8=
EXTT9=
PLAYORDER=
